#!OML:ASF I:\salsa\salsa 7_09\Patient 1\Session 1\dancermale.ASF
:FULLY-SPECIFIED
:DEGREES
1539
root 10.7087 17.0577 -0.921909 12.9007 300.23 -725.406
lowerback -0.553634 2.92128 -1.88069
upperback -0.0521212 3.90156 -1.75324
thorax 0.253089 1.94534 -0.714208
lowerneck -8.08948 5.36832 4.43434
upperneck 12.2437 7.14452 -3.87439
head 5.31411 3.42494 -1.4181
rclavicle -1.84075e-013 -5.56597e-015
rhumerus -10.0827 40.5155 -78.1395
rradius 82.2649
rwrist -39.2582
rhand 21.0938 3.56046
rfingers 7.12502
rthumb 45.5527 -19.718
lclavicle -1.84075e-013 -5.56597e-015
lhumerus 6.84493 7.46504 80.5472
lradius 73.501
lwrist 69.3685
lhand -19.8231 46.7992
lfingers 7.12502
lthumb 6.5106 76.6791
rfemur -25.729 -4.35855 12.0149
rtibia 16.0942
rfoot -2.66022 -19.7026
rtoes 0.396485
lfemur -9.43449 3.85712 -10.2396
ltibia 29.0701
lfoot -25.8726 20.287
ltoes -8.3623
1540
root 10.7132 17.0454 -0.93339 13.7042 300.021 -726.665
lowerback -0.538046 3.06413 -1.81634
upperback 0.107782 4.0966 -1.29381
thorax 0.378853 2.04261 -0.275718
lowerneck -8.58855 5.13539 4.71261
upperneck 13.0479 6.81529 -4.02863
head 5.65061 3.25335 -1.51601
rclavicle -6.14245e-014 1.03368e-014
rhumerus -9.5717 40.383 -78.1878
rradius 82.135
rwrist -38.8691
rhand 21.4024 2.97684
rfingers 7.12502
rthumb 45.8392 -20.1843
lclavicle -6.14245e-014 1.03368e-014
lhumerus 6.23911 8.39924 79.0094
lradius 74.0259
lwrist 70.0037
lhand -20.2219 46.9277
lfingers 7.12502
lthumb 6.12562 76.8192
rfemur -25.2272 -3.91733 12.789
rtibia 15.5269
rfoot -2.33433 -19.6693
rtoes 0.303809
lfemur -9.50334 3.89288 -9.57008
ltibia 29.9508
lfoot -26.1856 20.5751
ltoes -7.58055
1541
root 10.7198 17.0318 -0.940064 14.6219 299.849 -727.97
lowerback -0.581542 3.21648 -1.5888
upperback 0.225925 4.30215 -0.881956
thorax 0.50758 2.14527 0.0261989
lowerneck -8.6792 5.11382 4.82399
upperneck 13.291 6.80891 -4.27355
head 5.75432 3.23483 -1.60664
rclavicle -7.85199e-015 7.95139e-016
rhumerus -9.26689 40.1537 -78.6376
rradius 81.9478
rwrist -38.5099
rhand 22.3935 2.45985
rfingers 7.12502
rthumb 46.7579 -20.3123
lclavicle -7.85199e-015 7.95139e-016
lhumerus 5.7894 9.35694 77.4405
lradius 74.4189
lwrist 70.6286
lhand -20.6514 47.211
lfingers 7.12502
lthumb 5.71096 77.1141
rfemur -24.9684 -3.81196 13.6059
rtibia 15.2796
rfoot -2.19415 -19.3806
rtoes 0.451147
lfemur -9.61771 4.03935 -8.86371
ltibia 30.7665
lfoot -26.5012 20.7528
ltoes -7.02799
1542
root 10.7304 17.0165 -0.944776 15.405 299.696 -729.012
lowerback -0.703336 3.43687 -1.42665
upperback 0.314876 4.59808 -0.541001
thorax 0.648096 2.29258 0.297359
lowerneck -8.43707 5.13286 4.86438
upperneck 12.9383 6.85578 -4.46091
head 5.61281 3.25352 -1.67667
rclavicle -3.27001e-014 -7.15625e-015
rhumerus -9.33194 39.3992 -79.5197
rradius 81.7555
rwrist -37.4982
rhand 24.5059 2.31081
rfingers 7.12502
rthumb 48.7071 -19.5652
lclavicle -3.27001e-014 -7.15625e-015
lhumerus 5.53906 10.1636 76.0118
lradius 74.6938
lwrist 71.0406
lhand -20.8827 47.3342
lfingers 7.12502
lthumb 5.48763 77.2431
rfemur -24.9487 -4.03985 14.2834
rtibia 15.299
rfoot -2.32588 -18.9221
rtoes 1.32308
lfemur -9.79751 4.20176 -8.32765
ltibia 31.4621
lfoot -26.74 20.9719
ltoes -6.79946
1543
root 10.7452 17.0012 -0.948249 16.0917 299.563 -729.852
lowerback -0.833356 3.68448 -1.3084
upperback 0.352711 4.92873 -0.252772
thorax 0.739184 2.45741 0.539095
lowerneck -8.04707 5.16293 4.92737
upperneck 12.2132 6.91333 -4.68642
head 5.33357 3.28264 -1.76802
rclavicle -4.67144e-015 3.97569e-015
rhumerus -9.67788 38.5699 -80.6586
rradius 81.7117
rwrist -36.363
rhand 24.484 1.33716
rfingers 7.12502
rthumb 48.687 -20.5487
lclavicle -4.67144e-015 3.97569e-015
lhumerus 5.42679 10.9167 74.7439
lradius 74.8674
lwrist 71.1334
lhand -21.0487 47.4653
lfingers 7.12502
lthumb 5.32733 77.3783
rfemur -25.0503 -4.40772 14.8712
rtibia 15.4157
rfoot -2.08893 -18.3834
rtoes 0.241739
lfemur -10.0424 4.33648 -7.9235
ltibia 32.0921
lfoot -26.9395 21.1789
ltoes -6.44385
1544
root 10.7593 16.9889 -0.944081 16.5926 299.37 -730.687
lowerback -0.812625 3.97684 -1.0831
upperback 0.431958 5.31483 -0.00894629
thorax 0.799065 2.65046 0.669081
lowerneck -8.07099 5.2002 4.85668
upperneck 12.1971 6.96376 -4.62098
head 5.3303 3.30854 -1.7319
rclavicle -1.39149e-015 3.97569e-015
rhumerus -10.2983 37.902 -81.8455
rradius 81.901
rwrist -35.2463
rhand 24.0725 0.648721
rfingers 7.12502
rthumb 48.3083 -21.419
lclavicle -1.39149e-015 3.97569e-015
lhumerus 5.50988 11.7053 73.6625
lradius 74.8782
lwrist 70.8874
lhand -21.259 47.6323
lfingers 7.12502
lthumb 5.12428 77.5503
rfemur -24.9659 -4.77735 15.4446
rtibia 15.5673
rfoot -1.44895 -17.7908
rtoes -3.08945
lfemur -9.97563 4.42692 -7.56562
ltibia 32.5896
lfoot -27.1605 21.405
ltoes -6.07897
1545
root 10.777 16.9771 -0.940874 17.1088 299.209 -731.562
lowerback -0.797486 4.39795 -1.03115
upperback 0.525426 5.87309 0.364292
thorax 0.842133 2.92824 1.02837
lowerneck -8.89131 5.07389 4.37605
upperneck 13.3425 6.7767 -3.99824
head 5.7798 3.21506 -1.44557
rclavicle 1.95803e-014 4.37326e-015
rhumerus -11.1294 37.1597 -82.7603
rradius 82.238
rwrist -34.283
rhand 23.0082 -0.0140252
rfingers 7.12502
rthumb 47.3265 -22.5351
lclavicle 1.95803e-014 4.37326e-015
lhumerus 5.75969 12.1742 72.955
lradius 74.8703
lwrist 70.6817
lhand -21.4522 47.6006
lfingers 7.12502
lthumb 4.93768 77.523
rfemur -24.9475 -5.01824 16.0169
rtibia 15.8504
rfoot -1.16142 -17.237
rtoes -5.47851
lfemur -9.92273 4.58945 -7.17707
ltibia 33.1255
lfoot -27.3805 21.659
ltoes -6.12271
1546
root 10.8029 16.9628 -0.950265 17.7145 299.228 -732.341
lowerback -0.844987 4.82672 -1.20922
upperback 0.564533 6.44368 0.841989
thorax 0.820514 3.21133 1.62075
lowerneck -8.64245 4.41768 5.5566
upperneck 13.5205 5.94674 -5.46796
head 5.83676 2.76777 -2.17256
rclavicle -1.55052e-014 8.34896e-015
rhumerus -11.8053 36.7085 -83.2174
rradius 82.557
rwrist -34.4575
rhand 21.8854 -1.03434
rfingers 7.12502
rthumb 46.2872 -24.0083
lclavicle -1.55052e-014 8.34896e-015
lhumerus 6.25995 12.6254 72.564
lradius 74.805
lwrist 70.5753
lhand -21.3719 47.5781
lfingers 7.12502
lthumb 5.01527 77.4988
rfemur -25.2488 -5.15229 16.5813
rtibia 16.3454
rfoot -1.29362 -16.7959
rtoes -6.90476
lfemur -10.2587 4.93592 -6.73961
ltibia 33.8774
lfoot -27.5193 21.7775
ltoes -6.87473
1547
root 10.8302 16.9466 -0.928682 17.6573 299.691 -732.707
lowerback -0.751025 4.96427 -0.892116
upperback 0.747226 6.61723 1.21659
thorax 0.940731 3.29637 1.83053
lowerneck -7.92603 4.40808 5.39489
upperneck 12.2632 6.01581 -5.99804
head 5.33717 2.78261 -2.32556
rclavicle -8.63719e-014 2.8625e-014
rhumerus -12.4891 36.4455 -83.9245
rradius 82.8955
rwrist -34.5228
rhand 21.6526 -1.85752
rfingers 7.12502
rthumb 46.0714 -24.9223
lclavicle -8.63719e-014 2.8625e-014
lhumerus 7.11569 13.7331 72.3895
lradius 74.4645
lwrist 70.0993
lhand -20.9814 47.5962
lfingers 7.12502
lthumb 5.39227 77.5076
rfemur -25.1168 -5.59642 16.6977
rtibia 16.8329
rfoot -1.38182 -16.5622
rtoes -7.81237
lfemur -10.4516 4.64645 -6.55514
ltibia 34.6432
lfoot -27.5682 22.0685
ltoes -8.38743
